<?xml version="1.0" encoding="UTF-8"?>
<svg id="Capa_1" xmlns="http://www.w3.org/2000/svg" version="1.1" viewBox="0 0 539.54 45.23">
  <!-- Generator: Adobe Illustrator 30.5.1, SVG Export Plug-In . SVG Version: 2.1.4 Build 3)  -->
  <defs>
    <style>
      .st0 {
        isolation: isolate;
      }

      .st1 {
        fill: #333;
      }
    </style>
  </defs>
  <g class="st0">
    <g class="st0">
      <g class="st0">
        <path class="st1" d="M83.01,26.24v11.97h-8.01V6.71h12.96c6.66,0,10.48,3.87,10.48,9.76s-3.82,9.76-10.48,9.76h-4.95ZM90.8,16.47c0-1.93-1.12-3.19-3.38-3.19h-4.41v6.39h4.41c2.25,0,3.38-1.26,3.38-3.2Z"/>
        <path class="st1" d="M110.33,15.17c2.52,0,4.68.76,5.94,2.16v-1.8h7.38v22.68h-7.38v-1.93c-1.21,1.48-3.6,2.29-5.8,2.29-6.17,0-10.3-4.46-10.3-11.7s4.14-11.7,10.17-11.7ZM111.99,32.27c2.43,0,4.63-1.67,4.63-5.4s-2.2-5.4-4.63-5.4-4.63,1.67-4.63,5.4,2.21,5.4,4.63,5.4Z"/>
        <path class="st1" d="M136.07,15.53v2.61c1.22-1.75,3.65-2.97,6.44-2.97,5.17,0,7.56,2.75,7.56,7.47v15.57h-7.38v-13.41c0-1.94-.94-3.06-2.56-3.06-2.47,0-4.05,2.25-4.05,6.53v9.94h-7.38V15.53h7.38Z"/>
        <path class="st1" d="M160.64,28.76c.45,2.65,2.16,4.14,5.04,4.14,1.84,0,3.37-.77,4.45-2.43l5.67,2.07c-1.89,3.51-5.13,6.03-10.62,6.03-8.19,0-11.43-6.34-11.43-11.7s3.73-11.7,11.52-11.7c8.19,0,11.02,6.48,11.02,11.25v2.34h-15.66ZM160.82,23.99h8.68c-.31-1.93-1.8-3.46-4.32-3.46-1.84,0-3.69,1.08-4.36,3.46Z"/>
        <path class="st1" d="M187.59,6.35v31.86h-7.38V6.35h7.38Z"/>
        <path class="st1" d="M213.06,15.17c2.52,0,4.27.85,5.4,2.16V6.35h7.38v31.86h-7.38v-1.93c-1.21,1.48-3.06,2.29-5.26,2.29-6.17,0-10.12-4.46-10.12-11.7s3.96-11.7,9.99-11.7ZM214.55,32.27c2.43,0,4.28-1.67,4.28-5.4s-1.84-5.4-4.28-5.4-4.27,1.67-4.27,5.4,1.84,5.4,4.27,5.4Z"/>
        <path class="st1" d="M236.46,28.76c.45,2.65,2.16,4.14,5.04,4.14,1.84,0,3.37-.77,4.45-2.43l5.67,2.07c-1.89,3.51-5.13,6.03-10.62,6.03-8.19,0-11.43-6.34-11.43-11.7s3.73-11.7,11.52-11.7c8.19,0,11.02,6.48,11.02,11.25v2.34h-15.66ZM236.64,23.99h8.68c-.31-1.93-1.8-3.46-4.32-3.46-1.84,0-3.69,1.08-4.37,3.46Z"/>
        <path class="st1" d="M288.8,31.95c-2.02,4.54-5.58,6.62-10.93,6.62-7.47,0-11.74-5.31-11.74-11.7s4.27-11.7,11.74-11.7c5.31,0,9.13,2.16,10.89,6.66l-6.52,2.7c-.67-1.84-1.98-3.06-4.14-3.06-2.92,0-4.32,2.29-4.32,5.4s1.35,5.4,4.41,5.4c1.89,0,3.29-1.08,4.27-2.97l6.34,2.65Z"/>
        <path class="st1" d="M302.97,15.17c7.92,0,11.97,5.44,11.97,11.7s-4.05,11.7-11.97,11.7-11.97-5.45-11.97-11.7,4.05-11.7,11.97-11.7ZM302.97,32.27c3.15,0,4.59-2.16,4.59-5.4s-1.44-5.4-4.59-5.4-4.59,2.16-4.59,5.4,1.44,5.4,4.59,5.4Z"/>
        <path class="st1" d="M326.28,15.53v2.61c1.21-1.75,3.64-2.97,6.43-2.97,5.17,0,7.56,2.75,7.56,7.47v15.57h-7.38v-13.41c0-1.94-.94-3.06-2.56-3.06-2.47,0-4.05,2.25-4.05,6.53v9.94h-7.38V15.53h7.38Z"/>
        <path class="st1" d="M358.77,37.94c-.9.31-2.16.63-3.6.63-5.13,0-9.04-2.75-9.04-8.37v-9h-3.24v-5.67h3.24v-4.68l7.2-4.5v9.18h5.71v5.67h-5.71v7.61c0,2.16.9,3.28,2.57,3.28,1.12,0,1.93-.31,2.88-.72v6.57Z"/>
        <path class="st1" d="M362.91,38.21V15.53h7.38v2.47c1.17-1.71,3.64-2.83,6.3-2.83.81,0,1.49.13,1.93.27v7.02c-.67-.41-1.93-.63-2.88-.63-2.61,0-5.35,2.2-5.35,8.32v8.05h-7.38Z"/>
        <path class="st1" d="M392.66,15.17c7.92,0,11.97,5.44,11.97,11.7s-4.05,11.7-11.97,11.7-11.97-5.45-11.97-11.7,4.05-11.7,11.97-11.7ZM392.66,32.27c3.15,0,4.59-2.16,4.59-5.4s-1.44-5.4-4.59-5.4-4.59,2.16-4.59,5.4,1.44,5.4,4.59,5.4Z"/>
        <path class="st1" d="M415.74,6.35v31.86h-7.38V6.35h7.38Z"/>
      </g>
    </g>
  </g>
  <rect class="st1" y="17.21" width="50.9" height="11.5"/>
  <g>
    <path class="st1" d="M450.64,5.24c-2.84.05-8.08,1.45-10.48,11.22-1.04,4.26-1.45,8.7-.55,13.99.82,4.88,2.28,9.08,3.26,11.4.34.8.86,1.63,1.27,2.15,1.17,1.47,3.11,1.38,3.93.98.89-.44,1.91-1.5,1.54-3.91-.18-1.17-.7-2.87-.99-3.82-.89-2.91-2.08-6.42-2.18-8.92-.14-3.35,1.18-3.78,2.06-3.98,1.47-.32,2.71,1.29,3.88,3.32,1.4,2.42,3.8,6.71,5.76,9.98,1.77,2.96,5.03,6.12,10.27,5.9,5.34-.22,9.28-2.26,11.31-8.67,1.52-4.8,2.55-8.39,4.22-12.06,1.91-4.22,4.47-6.49,6.62-5.79,2,.64,2.49,2.59,2.52,5.46.02,2.54-.27,5.33-.5,7.39-.08.74-.23,2.24-.17,3.08.12,1.64.83,3.27,2.67,3.53,1.96.28,3.54-1.29,4.17-3.19.25-.75.46-1.89.58-2.7.58-4.1.73-6.86.47-11.05-.31-4.91-1.26-9.38-2.94-13.25-1.6-3.7-4.18-6.07-7.48-6.28-3.65-.23-7.85,2.19-10.05,6.89-2.03,4.34-3.65,8.78-4.64,11.06-1,2.3-2.46,3.72-4.72,3.96-2.76.29-5.13-1.71-6.87-4.57-1.52-2.49-4.52-7.22-6.13-8.81-1.51-1.49-3.24-3.36-6.83-3.31"/>
    <polygon class="st1" points="539.54 17.71 528.83 17.71 528.83 6.99 520.2 6.99 520.2 17.71 509.49 17.71 509.49 26.34 520.2 26.34 520.2 37.05 528.83 37.05 528.83 26.34 539.54 26.34 539.54 17.71"/>
  </g>
</svg>