<?xml version="1.0" encoding="UTF-8"?>
<svg id="Layer_1" xmlns="http://www.w3.org/2000/svg" version="1.1" viewBox="0 0 18.75 20.01">
  <!-- Generator: Adobe Illustrator 30.5.1, SVG Export Plug-In . SVG Version: 2.1.4 Build 3)  -->
  <defs>
    <style>
      .st0 {
        fill: #5e5f5e;
      }
    </style>
  </defs>
  <path class="st0" d="M8.93,3.81c-.45,0-.81.36-.81.81v4.56c-.46.26-.77.75-.77,1.32,0,.14.02.28.06.41h0l-1.94,1.94c-.32.32-.32.83,0,1.15.16.16.37.24.58.24s.42-.08.58-.24l2.01-2.01h0c.07.01.15.02.23.02.83,0,1.51-.68,1.51-1.51,0-.5-.24-.94-.62-1.22h0v-4.66c0-.45-.36-.81-.81-.81h0ZM3.21,3.72l.61-.49.65-.43.69-.37.72-.3.74-.23.76-.16.77-.09.78-.02.78.05.77.12.75.19.73.26.7.33.67.39.63.45.59.51.54.56.48.61.42.65.36.69.3.72.23.74.16.76.09.77.02.78-.06.77-.13.77-.2.75-.27.73-.33.7-.4.67-.46.63-.51.58-.57.53-.53.42-.57.38-.6.33-.62.28-.64.23-.66.18-.67.12-.68.07h-.68s-.68-.03-.68-.03l-.67-.1-.66-.15-.65-.2-.63-.26-.61-.31-.58-.36-.55-.4-.52-.44-.48-.49-.44-.52-.41-.58c-.16-.22-.41-.34-.67-.34-.16,0-.33.05-.47.15-.37.26-.45.77-.2,1.13l.43.61s.03.04.04.05l.48.57s.03.03.04.05l.52.53s.03.03.05.05l.57.49s.03.03.05.04l.6.44s.04.03.05.04l.64.39s.04.02.06.03l.67.34s.04.02.06.03l.69.28s.04.02.06.02l.71.22s.04.01.06.02l.73.17s.04,0,.06.01l.74.11s.04,0,.07,0l.75.05s.03,0,.05,0c0,0,.01,0,.02,0h.75s.04-.02.07-.02l.74-.07s.04,0,.07,0l.73-.13s.04,0,.06-.01l.72-.19s.04-.01.06-.02l.7-.25s.04-.02.06-.02l.68-.31s.04-.02.06-.03l.65-.36s.04-.02.06-.03l.62-.41s.04-.03.05-.04l.59-.46s.04-.03.05-.05l.62-.58s.04-.04.05-.05l.56-.64s.03-.04.05-.06l.5-.69s.03-.04.04-.06l.44-.73s.02-.04.04-.07l.37-.77s.02-.05.03-.07l.29-.8s.02-.05.02-.07l.22-.82s.01-.05.02-.07l.14-.84s0-.05,0-.07l.06-.85s0-.05,0-.08l-.02-.85s0-.05,0-.08l-.1-.85s0-.05-.01-.07l-.17-.83s-.01-.05-.02-.07l-.25-.81s-.02-.05-.03-.07l-.33-.79s-.02-.05-.03-.07l-.4-.75s-.02-.04-.04-.07l-.46-.71s-.03-.04-.04-.06l-.53-.67s-.03-.04-.05-.06l-.59-.62s-.04-.04-.05-.05l-.64-.56s-.04-.03-.06-.05l-.69-.5s-.04-.03-.06-.04l-.74-.43s-.04-.02-.07-.04l-.77-.36s-.05-.02-.07-.03l-.8-.29s-.05-.02-.07-.02l-.83-.21s-.05-.01-.07-.02l-.84-.14s-.05,0-.08,0L8.98,0S8.95,0,8.93,0h0s-.01,0-.02,0l-.85.02s-.05,0-.08,0l-.85.1s-.05,0-.07.01l-.83.18s-.05.01-.07.02l-.81.26s-.05.02-.07.03l-.79.33s-.05.02-.07.03l-.75.4s-.04.02-.06.04l-.71.47s-.04.03-.06.04l-.67.53s-.04.03-.06.05l-.48.46M8.93,0"/>
  <path class="st0" d="M0,2.37v3.99c0,.34.34.58.66.45l3.96-1.56c.37-.15.42-.66.08-.87L.74,1.96C.42,1.76,0,1.99,0,2.37Z"/>
</svg>